<?xml version="1.0" encoding="iso-8859-1"?>
<!-- Generator: Adobe Illustrator 18.0.0, SVG Export Plug-In . SVG Version: 6.00 Build 0)  -->
<!DOCTYPE svg PUBLIC "-//W3C//DTD SVG 1.1//EN" "http://www.w3.org/Graphics/SVG/1.1/DTD/svg11.dtd">
<svg version="1.1" id="Capa_1" xmlns="http://www.w3.org/2000/svg" xmlns:xlink="http://www.w3.org/1999/xlink" x="0px" y="0px"
	 viewBox="0 0 268 268" style="enable-background:new 0 0 268 268;" xml:space="preserve">
<g><path d="M266.582,110.87l-29.147-40.383l9.755-21.461c1.331-2.928,0.647-6.377-1.699-8.576c-2.347-2.199-5.833-2.656-8.668-1.14
	l-15.838,8.479l-8.238-18.031c-1.325-2.9-4.344-4.644-7.512-4.352c-3.174,0.293-5.816,2.562-6.587,5.654l-7.635,30.646
	l-30.204,33.52H47.727c-2.019,0-3.952,0.813-5.363,2.257l-40.227,41.15c-1.631,1.67-2.393,4.003-2.06,6.313
	c0.333,2.31,1.723,4.334,3.759,5.474l20.73,11.606c2.942,1.647,6.622,1.129,8.994-1.268l6.667-6.734v81.099
	c0,4.143,3.358,7.5,7.5,7.5h30.155c4.142,0,7.5-3.357,7.5-7.5v-28.396h57.927v28.396c0,4.143,3.358,7.5,7.5,7.5h30.154
	c4.142,0,7.5-3.357,7.5-7.5V165.16l19.363-37.383l37.121,15.006c3.385,1.367,7.265,0.102,9.187-3.004l12.742-20.57
	C268.476,116.627,268.359,113.334,266.582,110.87z M158.309,227.625v-28.396c0-4.143-3.358-7.5-7.5-7.5H77.882
	c-4.142,0-7.5,3.357-7.5,7.5v28.396H55.227v-56.792h118.236v56.792H158.309z M244.71,126.508l-37.592-15.196
	c-3.591-1.45-7.691,0.066-9.471,3.504l-21.246,41.018H55.227v-20.044c0-3.04-1.836-5.78-4.648-6.937
	c-2.811-1.158-6.044-0.501-8.183,1.66l-15.482,15.64l-7.206-4.034l31.175-31.891h113.261c2.125,0,4.149-0.901,5.572-2.479
	l33.691-37.39c0.823-0.913,1.409-2.015,1.706-3.207l2.902-11.649l2.644,5.787c0.861,1.884,2.462,3.328,4.424,3.99
	c1.962,0.663,4.111,0.483,5.938-0.494l3.342-1.789l-2.385,5.247c-1.114,2.45-0.829,5.311,0.746,7.493l28.756,39.842L244.71,126.508z
	"/>
</g>

</svg>
