<?xml version="1.0" encoding="UTF-8" standalone="no"?>
<svg
   xmlns="http://www.w3.org/2000/svg">
 <g>
  <path
    d="m 69.259335,140.656 c 7.754896,30.64954 14.672373,60.28965 10.415785,76.4808 -2.728506,3.58864 -4.122832,8.00275 -2.975946,13.98693 -0.30576,4.75295 -3.470422,8.61276 -6.547055,12.49891 -7.095448,8.75729 -9.193467,13.86134 -7.737434,16.36766 6.159925,1.44339 12.440251,2.48998 19.343598,1.48797 2.728131,7.6e-4 5.791358,0.38305 9.225381,1.19039 0.821085,-0.43805 1.647356,-0.75718 2.380758,-3.86874 -0.196373,-6.46941 1.246469,-9.36917 6.546706,-3.8687 1.526222,1.2357 3.014932,0.97526 4.463892,-0.89278 0.0328,-3.78699 12.75603,-8.05957 16.07006,-20.23637 -15.69707,-6.73506 -17.36037,-24.83179 -12.49893,-48.20981 1.26836,-9.7459 6.30258,-16.40553 20.23633,-15.77244 6.88667,0.87605 15.35639,-0.26352 25.29509,-3.27354 5.88206,-1.44673 11.76036,-2.26484 17.55807,8.33264 18.44745,35.5968 -3.99244,42.34223 -20.23601,68.74372 -2.90609,4.99556 -4.6244,9.65231 4.16594,11.30858 5.92178,0.49821 11.52514,1.69196 18.45081,0 4.9948,-4.79643 4.05297,-14.94879 16.66526,-25.59305 1.72682,-2.52489 4.12094,-2.5171 3.57109,-13.68893 -0.98159,-3.60531 -2.10881,-7.16602 8.33263,-14.28448 8.02128,-5.2122 13.85575,-11.37213 8.62982,-22.31953 -4.86293,-13.35567 0,-8.33266 4.4639,-1.19037 10.44592,20.91178 6.93458,41.85255 3.86874,62.79184 -2.39488,3.90217 -6.45641,7.28269 -11.30818,10.41579 -6.32487,4.96919 -6.99328,9.37995 2.38075,12.79655 11.42891,1.74245 22.77315,3.11934 29.75896,-14.2845 4.51482,-7.49297 6.61991,-16.16668 2.97595,-26.78343 0.14614,-4.07566 0.28641,-8.15243 3.86869,-12.20099 2.22659,-6.46531 3.11938,-14.11617 -2.97588,-27.97378 -2.55836,-8.79925 -3.94194,-17.25299 -0.89281,-24.40231 5.12563,2.87973 8.63319,6.82125 10.11817,11.90336 2.29086,0.62233 4.04003,1.67299 2.08318,5.6543 -1.55707,0.89612 -0.97786,2.16562 2.08314,3.86872 0.91398,4.45759 3.06325,8.50241 6.24946,12.20135 2.30535,-3.98319 4.56051,-8.03282 4.16633,-15.47488 -0.58516,-4.33349 -4.93052,-7.41606 -8.63021,-10.71338 -9.25178,-8.24755 -12.92582,-16.47688 -14.2845,-24.6999 z m -1.455281,-6.84464 -8.63019,-11.60617 C 48.489846,105.92264 44.517073,108.51369 41.318239,113.27741 34.244362,125.67787 22.859635,126.56136 10.071259,123.69316 -3.1127377,116.72704 -0.13346004,109.79621 1.4410677,102.86161 6.1587137,93.063346 9.7213068,82.591416 10.36888,70.424286 9.5466937,63.296548 10.899784,57.002467 16.32037,52.271067 18.075098,48.574021 -8.3899251,34.679967 13.34445,7.632406 c 11.173661,9.481015 3.322192,20.11265 17.558003,27.378601 1.459364,-14.781223 5.033105,-27.162 12.796543,-31.5449256 6.163631,10.4592776 11.13616,20.5688736 8.927814,28.5689796 -2.173829,7.368167 1.028363,10.808504 7.439838,11.903383 15.087361,1.598328 27.725248,11.921971 40.174772,22.914707 11.94571,18.9483 40.42254,19.13331 87.49178,-1.785542 23.76958,-9.80609 76.68851,0.09295 58.62558,69.041341 -143.00882,-0.99978 -164.758401,1.08338 -171.911067,0.86566 -4.37511,-0.13326 -6.890722,-0.54281 -6.643659,-1.16325 z"/>
 </g>
</svg>