<?xml version="1.0" encoding="UTF-8" standalone="no"?>
<svg
   xmlns="http://www.w3.org/2000/svg">
 <g>
  <path
     d="m 0.5850585,37.330311 c 4.3937e-4,6.419698 0.22019096,6.936739 3.9700603,6.925549 3.7092926,-0.01147 76.9212722,-0.08888 76.9750522,-0.08822 2.865392,0.03561 3.630755,-0.660902 3.617163,-5.558085 C 85.076314,12.980505 68.826367,7.1695739 42.57947,7.3343031 20.082705,7.475496 0.58334044,12.536622 0.5850585,37.330311 Z m 3.3524952,9.484033 c -2.3194805,-0.01329 -3.13193615,0.617564 -3.13193615,2.602593 0,4.106188 -0.31071321,35.820149 -0.1323351,40.979839 0.0701395,2.028742 1.19114755,2.626978 2.69081805,2.646708 3.3527853,0.0441 11.6900045,0.153912 14.7774445,0.08823 2.117366,-0.0441 3.028919,-1.056318 3.131936,-4.102397 0.09658,-2.85577 -0.04533,-7.587939 0.04411,-11.821954 0.03016,-1.427705 0.529342,-2.47026 1.985031,-2.514372 3.689487,-0.111805 17.870955,-0.113678 20.688422,-0.04411 3.573053,0.08822 4.146507,0.04411 4.234731,3.749502 0.10484,4.403307 0.08822,7.101996 -0.04411,10.498599 -0.141386,3.628911 1.058682,3.970058 2.999599,4.014171 2.866526,0.06515 9.484102,-0.09304 12.792417,-0.0441 4.398662,0.06314 4.316692,-1.277276 4.367068,-7.013768 0.02272,-2.470552 0.0034,-11.076104 -0.08823,-14.998005 -0.02281,-0.974192 0.485325,-1.665246 1.146909,-1.676247 2.697002,-0.04411 3.258521,7.014857 3.925948,10.542716 2.474242,13.078325 8.193631,14.746437 13.409982,14.777444 6.538952,0.041 12.769616,-5.38026 12.792415,-16.541916 0.0034,-1.680588 -0.352894,-3.131935 -1.58802,-3.131936 -5.515418,-6e-6 -2.294604,0.08085 -5.205195,0 -1.543915,-0.04411 -2.911378,0.176446 -2.602589,2.558483 0.308782,2.382035 0.444516,6.821993 -2.558484,6.925546 -1.279247,0.0441 -2.293816,-0.882231 -2.293816,-3.484828 0,-2.602594 -0.183294,-29.115338 -0.264669,-31.231138 -0.0441,-1.146907 -0.08823,-2.867265 -2.382046,-2.823153 -2.866687,0.05734 -74.0450015,0.06933 -78.6954051,0.04411 z"/>
 </g>
</svg>
