<?xml version="1.0" encoding="iso-8859-1"?>
<!-- Generator: Adobe Illustrator 18.0.0, SVG Export Plug-In . SVG Version: 6.00 Build 0)  -->
<!DOCTYPE svg PUBLIC "-//W3C//DTD SVG 1.1//EN" "http://www.w3.org/Graphics/SVG/1.1/DTD/svg11.dtd">
<svg version="1.1" id="Capa_1" xmlns="http://www.w3.org/2000/svg" xmlns:xlink="http://www.w3.org/1999/xlink" x="0px" y="0px"
	 viewBox="0 0 226.103 226.103" style="enable-background:new 0 0 226.103 226.103;" xml:space="preserve">
<path d="M218.603,158.208h-20.285c-0.877,0-1.717,0.15-2.499,0.427V66.821c0-29.555-43.007-52.705-97.909-52.705
	C43.007,14.116,0,37.266,0,66.821v137.666c0,4.143,3.358,7.5,7.5,7.5h44.282c4.142,0,7.5-3.357,7.5-7.5v-36.782h40.68v36.782
	c0,4.143,3.358,7.5,7.5,7.5h44.283c4.142,0,7.5-3.357,7.5-7.5v-10.158c6.264,10.563,17.782,17.658,30.928,17.658
	c19.811,0,35.93-16.118,35.93-35.93v-10.349C226.103,161.566,222.745,158.208,218.603,158.208z M37.334,41.564
	c16.055-8.027,37.567-12.448,60.575-12.448s44.52,4.421,60.575,12.448c14.194,7.098,22.334,16.303,22.334,25.257V95.3H15V66.821
	C15,57.867,23.141,48.662,37.334,41.564z M211.103,176.057c0,11.541-9.389,20.93-20.93,20.93s-20.93-9.389-20.93-20.93v-15.853
	c0-6.893-5.607-12.5-12.5-12.5c-6.892,0-12.498,5.607-12.498,12.5v36.782h-29.283v-36.782c0-4.143-3.358-7.5-7.5-7.5h-55.68
	c-4.142,0-7.5,3.357-7.5,7.5v36.782H15V110.3h165.818v66.382c0,6.893,5.607,12.5,12.5,12.5c6.892,0,12.499-5.607,12.499-12.5v-3.474
	h5.285V176.057z"/>
<g>
</g>
<g>
</g>
<g>
</g>
<g>
</g>
<g>
</g>
<g>
</g>
<g>
</g>
<g>
</g>
<g>
</g>
<g>
</g>
<g>
</g>
<g>
</g>
<g>
</g>
<g>
</g>
<g>
</g>
</svg>
